<svg xmlns="http://www.w3.org/2000/svg" width="21.422" height="21.422" viewBox="0 0 21.422 21.422">
  <g id="calendar_1_" transform="translate(0 0)">
    <path id="Path_148" data-name="Path 148" d="M19.637,2.008h-2.9V.669a.669.669,0,1,0-1.339,0V2.008H11.38V.669a.669.669,0,0,0-1.339,0V2.008H6.025V.669a.669.669,0,0,0-1.339,0V2.008h-2.9A1.785,1.785,0,0,0,0,3.793V19.636a1.785,1.785,0,0,0,1.785,1.785H19.637a1.785,1.785,0,0,0,1.785-1.785V3.793A1.784,1.784,0,0,0,19.637,2.008Zm.446,17.628a.447.447,0,0,1-.446.447H1.785a.447.447,0,0,1-.447-.447V3.793a.447.447,0,0,1,.447-.446h2.9V4.686a.669.669,0,0,0,1.339,0V3.347h4.017V4.686a.669.669,0,1,0,1.339,0V3.347H15.4V4.686a.669.669,0,1,0,1.339,0V3.347h2.9a.447.447,0,0,1,.446.446Z" fill="#6777f6"/>
    <rect id="Rectangle_134" data-name="Rectangle 134" width="2.678" height="2.008" transform="translate(4.686 8.033)" fill="#6777f6"/>
    <rect id="Rectangle_135" data-name="Rectangle 135" width="2.678" height="2.008" transform="translate(4.686 11.38)" fill="#6777f6"/>
    <rect id="Rectangle_136" data-name="Rectangle 136" width="2.678" height="2.008" transform="translate(4.686 14.727)" fill="#6777f6"/>
    <rect id="Rectangle_137" data-name="Rectangle 137" width="2.678" height="2.008" transform="translate(9.372 14.727)" fill="#6777f6"/>
    <rect id="Rectangle_138" data-name="Rectangle 138" width="2.678" height="2.008" transform="translate(9.372 11.38)" fill="#6777f6"/>
    <rect id="Rectangle_139" data-name="Rectangle 139" width="2.678" height="2.008" transform="translate(9.372 8.033)" fill="#6777f6"/>
    <rect id="Rectangle_140" data-name="Rectangle 140" width="2.678" height="2.008" transform="translate(14.058 14.727)" fill="##6777f6"/>
    <rect id="Rectangle_141" data-name="Rectangle 141" width="2.678" height="2.008" transform="translate(14.058 11.38)" fill="#6777f6"/>
    <rect id="Rectangle_142" data-name="Rectangle 142" width="2.678" height="2.008" transform="translate(14.058 8.033)" fill="#6777f6"/>
  </g>
</svg>
